/* XPM */
static char *_80f30cf0ee248c3c561ee5a821db67eIKiQzCxafzGeu9aU[] = {
/* columns rows colors chars-per-pixel */
"20 20 7 1 ",
"  c None",
". c #EFF523",
"X c #EDF324",
"o c #EFF524",
"O c #EFF624",
"+ c #EFF724",
"@ c #EFF625",
/* pixels */
"                    ",
"         @X         ",
"         @@         ",
"        @@@X        ",
"        @@@@        ",
"       @@@@@.       ",
"       @@@@@@       ",
"      @@@@@@@.      ",
"      @@@@@@@@      ",
"     @@@@@@@@@.     ",
"     @@@@@@@@@@     ",
"    @@@@@@@@@@@@    ",
"    @.@@.@@@@@@@    ",
"   @@@@@@..@@@@@@   ",
"   @@@@@@@@@@@@@@   ",
"  @@@@@@@@@@@@@@@@  ",
"  @@@@@@@@@@@@@@@@  ",
" @@@@@@@@.@@@@@@@@@ ",
" @@@@@@@@@@@@@@.@@@ ",
"@@@@@@@@@@@@@@..@@@@"
};
